<svg width="28" height="18" viewBox="0 0 28 18" fill="none" xmlns="http://www.w3.org/2000/svg">
<path fill-rule="evenodd" clip-rule="evenodd" d="M27.9979 9C27.9979 8.73482 27.8925 8.4805 27.705 8.29299C27.5175 8.10548 27.2632 8.00014 26.998 8.00014H3.41531L9.70843 1.70902C9.80139 1.61606 9.87513 1.5057 9.92544 1.38424C9.97575 1.26277 10.0016 1.13259 10.0016 1.00112C10.0016 0.869653 9.97575 0.739471 9.92544 0.61801C9.87513 0.496548 9.80139 0.386185 9.70843 0.293222C9.61546 0.200259 9.5051 0.126517 9.38364 0.076206C9.26218 0.0258949 9.13199 0 9.00052 0C8.86906 0 8.73887 0.0258949 8.61741 0.076206C8.49595 0.126517 8.38559 0.200259 8.29262 0.293222L0.293746 8.2921C0.200633 8.38498 0.126758 8.49531 0.0763518 8.61679C0.025946 8.73826 0 8.86848 0 9C0 9.13152 0.025946 9.26174 0.0763518 9.38321C0.126758 9.50469 0.200633 9.61502 0.293746 9.7079L8.29262 17.7068C8.38559 17.7997 8.49595 17.8735 8.61741 17.9238C8.73887 17.9741 8.86906 18 9.00052 18C9.13199 18 9.26218 17.9741 9.38364 17.9238C9.5051 17.8735 9.61546 17.7997 9.70843 17.7068C9.80139 17.6138 9.87513 17.5035 9.92544 17.382C9.97575 17.2605 10.0016 17.1303 10.0016 16.9989C10.0016 16.8674 9.97575 16.7372 9.92544 16.6158C9.87513 16.4943 9.80139 16.3839 9.70843 16.291L3.41531 9.99986H26.998C27.2632 9.99986 27.5175 9.89452 27.705 9.70701C27.8925 9.5195 27.9979 9.26518 27.9979 9Z" fill="white"/>
</svg>
