<svg width="29" height="29" viewBox="0 0 29 29" fill="none" xmlns="http://www.w3.org/2000/svg">
<path d="M0.966697 0C0.710313 0 0.46443 0.101845 0.283139 0.28313C0.101848 0.464415 0 0.710291 0 0.966667C0 1.22304 0.101848 1.46892 0.283139 1.6502C0.46443 1.83149 0.710313 1.93333 0.966697 1.93333H3.11276L3.88805 5.0402L6.78428 20.4779C6.82575 20.6994 6.94331 20.8995 7.11665 21.0435C7.28998 21.1875 7.5082 21.2665 7.73357 21.2667H9.66697C8.64143 21.2667 7.6579 21.674 6.93273 22.3992C6.20757 23.1243 5.80018 24.1078 5.80018 25.1333C5.80018 26.1588 6.20757 27.1423 6.93273 27.8675C7.6579 28.5926 8.64143 29 9.66697 29C10.6925 29 11.676 28.5926 12.4012 27.8675C13.1264 27.1423 13.5338 26.1588 13.5338 25.1333C13.5338 24.1078 13.1264 23.1243 12.4012 22.3992C11.676 21.674 10.6925 21.2667 9.66697 21.2667H23.2007C22.1752 21.2667 21.1917 21.674 20.4665 22.3992C19.7413 23.1243 19.3339 24.1078 19.3339 25.1333C19.3339 26.1588 19.7413 27.1423 20.4665 27.8675C21.1917 28.5926 22.1752 29 23.2007 29C24.2263 29 25.2098 28.5926 25.9349 27.8675C26.6601 27.1423 27.0675 26.1588 27.0675 25.1333C27.0675 24.1078 26.6601 23.1243 25.9349 22.3992C25.2098 21.674 24.2263 21.2667 23.2007 21.2667H25.1341C25.3595 21.2665 25.5777 21.1875 25.751 21.0435C25.9244 20.8995 26.0419 20.6994 26.0834 20.4779L28.9835 5.0112C29.0096 4.87168 29.0047 4.72813 28.9691 4.59073C28.9334 4.45334 28.868 4.32547 28.7774 4.21622C28.6868 4.10697 28.5732 4.01901 28.4448 3.9586C28.3163 3.89819 28.1761 3.8668 28.0342 3.86667H5.58751L4.80448 0.732733C4.7523 0.523516 4.63166 0.337751 4.46175 0.204981C4.29184 0.0722113 4.08242 5.95689e-05 3.86679 0H0.966697ZM11.6004 25.1333C11.6004 25.6461 11.3967 26.1378 11.0341 26.5004C10.6715 26.863 10.1797 27.0667 9.66697 27.0667C9.1542 27.0667 8.66243 26.863 8.29985 26.5004C7.93727 26.1378 7.73357 25.6461 7.73357 25.1333C7.73357 24.6206 7.93727 24.1288 8.29985 23.7663C8.66243 23.4037 9.1542 23.2 9.66697 23.2C10.1797 23.2 10.6715 23.4037 11.0341 23.7663C11.3967 24.1288 11.6004 24.6206 11.6004 25.1333ZM25.1341 25.1333C25.1341 25.6461 24.9304 26.1378 24.5678 26.5004C24.2053 26.863 23.7135 27.0667 23.2007 27.0667C22.688 27.0667 22.1962 26.863 21.8336 26.5004C21.471 26.1378 21.2673 25.6461 21.2673 25.1333C21.2673 24.6206 21.471 24.1288 21.8336 23.7663C22.1962 23.4037 22.688 23.2 23.2007 23.2C23.7135 23.2 24.2053 23.4037 24.5678 23.7663C24.9304 24.1288 25.1341 24.6206 25.1341 25.1333ZM21.9517 10.3511L16.1516 16.1511C16.0618 16.2411 15.9551 16.3125 15.8376 16.3612C15.7202 16.41 15.5943 16.4351 15.4671 16.4351C15.34 16.4351 15.2141 16.41 15.0966 16.3612C14.9792 16.3125 14.8725 16.2411 14.7827 16.1511L11.8826 13.2511C11.7928 13.1612 11.7215 13.0545 11.6728 12.9371C11.6242 12.8196 11.5991 12.6938 11.5991 12.5667C11.5991 12.4396 11.6242 12.3137 11.6728 12.1963C11.7215 12.0788 11.7928 11.9721 11.8826 11.8823C11.9725 11.7924 12.0792 11.7211 12.1966 11.6725C12.3141 11.6238 12.4399 11.5988 12.5671 11.5988C12.6942 11.5988 12.82 11.6238 12.9375 11.6725C13.0549 11.7211 13.1616 11.7924 13.2515 11.8823L15.4671 14.0998L20.5829 8.98227C20.6728 8.89239 20.7795 8.8211 20.8969 8.77245C21.0144 8.72381 21.1402 8.69878 21.2673 8.69878C21.3944 8.69878 21.5203 8.72381 21.6377 8.77245C21.7552 8.8211 21.8619 8.89239 21.9517 8.98227C22.0416 9.07214 22.1129 9.17884 22.1616 9.29627C22.2102 9.4137 22.2352 9.53956 22.2352 9.66667C22.2352 9.79377 22.2102 9.91963 22.1616 10.0371C22.1129 10.1545 22.0416 10.2612 21.9517 10.3511Z" fill="#EA98FE"/>
</svg>
