<svg width="20" height="20" viewBox="0 0 20 20" fill="none" xmlns="http://www.w3.org/2000/svg">
<circle cx="10" cy="10" r="10" fill="url(#paint0_linear)"/>
<path fill-rule="evenodd" clip-rule="evenodd" d="M8.16991 4.11882C8.6091 2.62706 10.7242 2.62706 11.1634 4.11882L11.2418 4.38467C11.2724 4.4888 11.326 4.58475 11.3986 4.66549C11.4712 4.74622 11.5609 4.80969 11.6612 4.85124C11.7615 4.8928 11.8698 4.91138 11.9782 4.90563C12.0866 4.89989 12.1923 4.86995 12.2877 4.81803L12.531 4.68552C13.8969 3.94131 15.3929 5.43557 14.6486 6.80232L14.5153 7.04567C14.4634 7.141 14.4334 7.24675 14.4277 7.35515C14.422 7.46355 14.4405 7.57187 14.4821 7.67216C14.5236 7.77245 14.5871 7.86217 14.6678 7.93474C14.7486 8.00731 14.8445 8.0609 14.9487 8.09157L15.2145 8.16991C16.7063 8.6091 16.7063 10.7242 15.2145 11.1634L14.9487 11.2418C14.8445 11.2724 14.7486 11.326 14.6678 11.3986C14.5871 11.4712 14.5236 11.5609 14.4821 11.6612C14.4405 11.7615 14.422 11.8698 14.4277 11.9782C14.4334 12.0866 14.4634 12.1923 14.5153 12.2877L14.6478 12.531C15.3929 13.8969 13.8978 15.3929 12.531 14.6486L12.2877 14.5153C12.1923 14.4634 12.0866 14.4334 11.9782 14.4277C11.8698 14.422 11.7615 14.4405 11.6612 14.4821C11.5609 14.5236 11.4712 14.5871 11.3986 14.6678C11.326 14.7486 11.2724 14.8445 11.2418 14.9487L11.1634 15.2145C10.7242 16.7063 8.6091 16.7063 8.16991 15.2145L8.09157 14.9487C8.0609 14.8445 8.00731 14.7486 7.93474 14.6678C7.86217 14.5871 7.77245 14.5236 7.67216 14.4821C7.57187 14.4405 7.46355 14.422 7.35515 14.4277C7.24675 14.4334 7.141 14.4634 7.04567 14.5153L6.80232 14.6478C5.43557 15.3929 3.94131 13.8978 4.68469 12.531L4.81803 12.2877C4.86995 12.1923 4.89989 12.0866 4.90563 11.9782C4.91138 11.8698 4.8928 11.7615 4.85124 11.6612C4.80969 11.5609 4.74622 11.4712 4.66549 11.3986C4.58475 11.326 4.4888 11.2724 4.38467 11.2418L4.11882 11.1634C2.62706 10.7242 2.62706 8.6091 4.11882 8.16991L4.38467 8.09157C4.4888 8.0609 4.58475 8.00731 4.66549 7.93474C4.74622 7.86217 4.80969 7.77245 4.85124 7.67216C4.8928 7.57187 4.91138 7.46355 4.90563 7.35515C4.89989 7.24675 4.86995 7.141 4.81803 7.04567L4.68552 6.80232C3.94131 5.4364 5.43557 3.94131 6.80232 4.68469L7.04567 4.81803C7.141 4.86995 7.24675 4.89989 7.35515 4.90563C7.46355 4.91138 7.57187 4.8928 7.67216 4.85124C7.77245 4.80969 7.86217 4.74622 7.93474 4.66549C8.00731 4.58475 8.0609 4.4888 8.09157 4.38467L8.16991 4.11882ZM9.5 12C10.8807 12 12 10.8807 12 9.5C12 8.11929 10.8807 7 9.5 7C8.11929 7 7 8.11929 7 9.5C7 10.8807 8.11929 12 9.5 12Z" fill="white"/>
<circle cx="10" cy="10" r="10" fill="url(#paint1_linear)"/>
<path fill-rule="evenodd" clip-rule="evenodd" d="M8.16991 4.11882C8.6091 2.62706 10.7242 2.62706 11.1634 4.11882L11.2418 4.38467C11.2724 4.4888 11.326 4.58475 11.3986 4.66549C11.4712 4.74622 11.5609 4.80969 11.6612 4.85124C11.7615 4.8928 11.8698 4.91138 11.9782 4.90563C12.0866 4.89989 12.1923 4.86995 12.2877 4.81803L12.531 4.68552C13.8969 3.94131 15.3929 5.43557 14.6486 6.80232L14.5153 7.04567C14.4634 7.141 14.4334 7.24675 14.4277 7.35515C14.422 7.46355 14.4405 7.57187 14.4821 7.67216C14.5236 7.77245 14.5871 7.86217 14.6678 7.93474C14.7486 8.00731 14.8445 8.0609 14.9487 8.09157L15.2145 8.16991C16.7063 8.6091 16.7063 10.7242 15.2145 11.1634L14.9487 11.2418C14.8445 11.2724 14.7486 11.326 14.6678 11.3986C14.5871 11.4712 14.5236 11.5609 14.4821 11.6612C14.4405 11.7615 14.422 11.8698 14.4277 11.9782C14.4334 12.0866 14.4634 12.1923 14.5153 12.2877L14.6478 12.531C15.3929 13.8969 13.8978 15.3929 12.531 14.6486L12.2877 14.5153C12.1923 14.4634 12.0866 14.4334 11.9782 14.4277C11.8698 14.422 11.7615 14.4405 11.6612 14.4821C11.5609 14.5236 11.4712 14.5871 11.3986 14.6678C11.326 14.7486 11.2724 14.8445 11.2418 14.9487L11.1634 15.2145C10.7242 16.7063 8.6091 16.7063 8.16991 15.2145L8.09157 14.9487C8.0609 14.8445 8.00731 14.7486 7.93474 14.6678C7.86217 14.5871 7.77245 14.5236 7.67216 14.4821C7.57187 14.4405 7.46355 14.422 7.35515 14.4277C7.24675 14.4334 7.141 14.4634 7.04567 14.5153L6.80232 14.6478C5.43557 15.3929 3.94131 13.8978 4.68469 12.531L4.81803 12.2877C4.86995 12.1923 4.89989 12.0866 4.90563 11.9782C4.91138 11.8698 4.8928 11.7615 4.85124 11.6612C4.80969 11.5609 4.74622 11.4712 4.66549 11.3986C4.58475 11.326 4.4888 11.2724 4.38467 11.2418L4.11882 11.1634C2.62706 10.7242 2.62706 8.6091 4.11882 8.16991L4.38467 8.09157C4.4888 8.0609 4.58475 8.00731 4.66549 7.93474C4.74622 7.86217 4.80969 7.77245 4.85124 7.67216C4.8928 7.57187 4.91138 7.46355 4.90563 7.35515C4.89989 7.24675 4.86995 7.141 4.81803 7.04567L4.68552 6.80232C3.94131 5.4364 5.43557 3.94131 6.80232 4.68469L7.04567 4.81803C7.141 4.86995 7.24675 4.89989 7.35515 4.90563C7.46355 4.91138 7.57187 4.8928 7.67216 4.85124C7.77245 4.80969 7.86217 4.74622 7.93474 4.66549C8.00731 4.58475 8.0609 4.4888 8.09157 4.38467L8.16991 4.11882ZM9.5 12C10.8807 12 12 10.8807 12 9.5C12 8.11929 10.8807 7 9.5 7C8.11929 7 7 8.11929 7 9.5C7 10.8807 8.11929 12 9.5 12Z" fill="white"/>
<defs>
<linearGradient id="paint0_linear" x1="0" y1="20" x2="20" y2="20" gradientUnits="userSpaceOnUse">
<stop stop-color="#B283F5"/>
<stop offset="0.505208" stop-color="#865BFF"/>
<stop offset="1" stop-color="#505CE4"/>
</linearGradient>
<linearGradient id="paint1_linear" x1="0" y1="20" x2="20" y2="20" gradientUnits="userSpaceOnUse">
<stop stop-color="#B283F5"/>
<stop offset="0.505208" stop-color="#865BFF"/>
<stop offset="1" stop-color="#505CE4"/>
</linearGradient>
</defs>
</svg>
