<svg width="176" height="21" viewBox="0 0 176 21" fill="none" xmlns="http://www.w3.org/2000/svg">
<path d="M22.2515 20.2017H6.60443C4.76991 20.2017 3.21001 19.5927 1.92615 18.3779C0.641348 17.1633 0 15.6384 0 13.8072V6.39282C0 4.56346 0.641348 3.0388 1.92615 1.82398C3.21001 0.607293 4.76991 0 6.60443 0H22.2515V4.71557H6.60443C5.34628 4.71557 4.71779 5.27683 4.71779 6.40006V13.8016C4.71779 14.9248 5.34628 15.4861 6.60443 15.4861H22.2515V20.2017Z" fill="url(#paint0_linear)"/>
<path d="M52.9962 13.9525C52.9962 15.6552 52.4584 17.1231 51.3839 18.3561C50.3092 19.5857 48.933 20.2019 47.2563 20.2019H33.8897C32.1856 20.2019 30.8035 19.5855 29.7419 18.3561C28.6801 17.1233 28.1498 15.6552 28.1498 13.9525V0.000427246H32.8676V13.9525C32.8676 14.9746 33.2088 15.4863 33.8918 15.4863H47.2932C47.9505 15.4863 48.2788 14.9746 48.2788 13.9525V0.000427246H52.9966V13.9525H52.9962Z" fill="url(#paint1_linear)"/>
<path d="M83.7004 20.2018H78.9826V13.7945H66.5593V9.07897H78.9826V6.24977C78.9826 5.22609 78.6421 4.716 77.9603 4.716H64.5937C63.9383 4.716 63.6108 5.22632 63.6108 6.24626V20.2021H58.8931V6.23714C58.8931 4.53631 59.4234 3.07217 60.4852 1.84263C61.547 0.615198 62.916 0.000427246 64.5937 0.000427246H77.9603C79.6635 0.000427246 81.0464 0.615198 82.1083 1.84263C83.1699 3.07217 83.7004 4.53607 83.7004 6.23714V20.2018Z" fill="url(#paint2_linear)"/>
<path d="M113.737 13.9725C113.737 15.6699 113.225 17.1193 112.203 18.3213C111.104 19.5742 109.715 20.2018 108.037 20.2018H90.5793V15.4862H108.037C108.692 15.4862 109.019 14.9817 109.019 13.9723C109.019 12.965 108.692 12.4586 108.037 12.4586H95.3382C93.6588 12.4586 92.2712 11.831 91.1701 10.5725C90.1221 9.39435 89.5964 7.95218 89.5964 6.24947C89.5964 4.54676 90.1333 3.07912 91.2106 1.84584C92.2843 0.616532 93.6591 0.00012207 95.3382 0.00012207H112.794V4.7157H95.2996C94.6426 4.7157 94.314 5.22602 94.314 6.24947C94.314 7.24394 94.6426 7.74328 95.2996 7.74328H108.024C109.705 7.74328 111.098 8.37091 112.201 9.62218C113.225 10.826 113.737 12.2754 113.737 13.9725Z" fill="url(#paint3_linear)"/>
<path d="M144.441 20.2018H139.724V13.7945H127.3V9.07897H139.724V6.24977C139.724 5.22609 139.382 4.716 138.701 4.716H125.333C124.678 4.716 124.351 5.22632 124.351 6.24626V20.2021H119.632V6.23714C119.632 4.53631 120.165 3.07217 121.225 1.84263C122.286 0.615198 123.655 0.000427246 125.333 0.000427246H138.701C140.405 0.000427246 141.786 0.615198 142.847 1.84263C143.91 3.07217 144.44 4.53607 144.44 6.23714V20.2018H144.441Z" fill="url(#paint4_linear)"/>
<path d="M174.085 20.2019H167.637L157.532 8.88293H169.682C170.546 8.88293 170.978 8.18755 170.978 6.80028C170.978 5.41162 170.546 4.716 169.682 4.716H155.056V20.2019H150.338V0.000427246H169.956C171.765 0.000427246 173.193 0.708662 174.241 2.1214C175.212 3.40585 175.697 4.96555 175.697 6.80005C175.697 8.63525 175.212 10.1929 174.241 11.4754C173.193 12.8919 171.765 13.6001 169.956 13.6001H168.148L174.085 20.2019Z" fill="url(#paint5_linear)"/>
<defs>
<linearGradient id="paint0_linear" x1="2.47034" y1="2.13094" x2="119.345" y2="88.3451" gradientUnits="userSpaceOnUse">
<stop stop-color="#B283F5"/>
<stop offset="0.3531" stop-color="#865BFF"/>
<stop offset="0.7036" stop-color="#558DFE"/>
<stop offset="1" stop-color="#505CE4"/>
</linearGradient>
<linearGradient id="paint1_linear" x1="12.7648" y1="-11.8225" x2="129.638" y2="74.3903" gradientUnits="userSpaceOnUse">
<stop stop-color="#B283F5"/>
<stop offset="0.3531" stop-color="#865BFF"/>
<stop offset="0.7036" stop-color="#558DFE"/>
<stop offset="1" stop-color="#505CE4"/>
</linearGradient>
<linearGradient id="paint2_linear" x1="22.2278" y1="-24.6548" x2="139.104" y2="61.5607" gradientUnits="userSpaceOnUse">
<stop stop-color="#B283F5"/>
<stop offset="0.3531" stop-color="#865BFF"/>
<stop offset="0.7036" stop-color="#558DFE"/>
<stop offset="1" stop-color="#505CE4"/>
</linearGradient>
<linearGradient id="paint3_linear" x1="33.6135" y1="-40.0865" x2="150.487" y2="46.127" gradientUnits="userSpaceOnUse">
<stop stop-color="#B283F5"/>
<stop offset="0.3531" stop-color="#865BFF"/>
<stop offset="0.7036" stop-color="#558DFE"/>
<stop offset="1" stop-color="#505CE4"/>
</linearGradient>
<linearGradient id="paint4_linear" x1="43.6233" y1="-53.6618" x2="160.501" y2="32.5542" gradientUnits="userSpaceOnUse">
<stop stop-color="#B283F5"/>
<stop offset="0.3531" stop-color="#865BFF"/>
<stop offset="0.7036" stop-color="#558DFE"/>
<stop offset="1" stop-color="#505CE4"/>
</linearGradient>
<linearGradient id="paint5_linear" x1="54.532" y1="-68.4401" x2="171.404" y2="17.7721" gradientUnits="userSpaceOnUse">
<stop stop-color="#B283F5"/>
<stop offset="0.3531" stop-color="#865BFF"/>
<stop offset="0.7036" stop-color="#558DFE"/>
<stop offset="1" stop-color="#505CE4"/>
</linearGradient>
</defs>
</svg>
