<svg width="238" height="137" viewBox="0 0 238 137" fill="none" xmlns="http://www.w3.org/2000/svg">
<path d="M111.925 30.9519C121.094 31.3295 130.084 32.7365 138.596 37.0798C142.38 39.0109 145.824 41.5846 148.695 45.1724C154.515 52.4451 154.552 61.4537 148.797 68.8278C145.361 73.2322 141.067 76.016 136.403 77.9297C126.57 81.9663 116.581 83.7009 106.375 80.04C101.058 78.1335 96.0478 75.489 92.5721 69.9226C88.9472 64.1166 90.0674 57.5624 95.2759 53.8726C98.4135 51.6506 101.852 50.4067 105.442 49.9889C109.886 49.4733 114.359 49.4236 118.627 51.3126C120.174 51.9972 121.71 52.999 122.973 54.2604C124.882 56.1681 124.813 59.1906 123.093 61.3527C121.26 63.6532 116.609 63.9242 114.65 61.8054C114.273 61.3977 114.022 60.8222 113.458 59.9151C114.613 60.2332 115.326 60.4718 116.052 60.6222C117.66 60.9542 118.946 60.1474 119.353 58.5977C119.806 56.8878 119.261 55.5505 117.737 54.6133C113.641 52.0995 104.945 53.9299 101.821 57.9628C99.6708 60.7403 99.5612 64.0274 101.822 66.6805C103.12 68.2039 104.675 69.5662 106.314 70.4844C116.301 76.0831 125.852 75.5884 134.723 67.1144C134.81 67.0337 134.897 66.9555 134.981 66.872C140.183 61.6936 140.148 55.5692 134.763 50.6903C128.898 45.3737 122.081 42.7677 114.981 41.2019C105.634 39.1413 96.317 39.247 87.1058 42.4034C86.6024 42.575 86.0791 42.6658 85.4376 42.3983C85.935 42.135 86.4223 41.8368 86.933 41.6143C95.4232 37.9135 104.201 37.3504 113.092 38.238C118.958 38.8219 124.736 40.1431 130.181 42.8374C133.1 44.2801 135.981 46.1716 138.455 48.5142C143.964 53.7312 143.621 60.4633 139.45 66.7476C139.017 67.4012 138.495 67.9703 138.02 68.5707C138.149 68.7274 138.239 68.8914 138.278 68.8752C142.773 67.1106 147.321 60.4617 147.462 55.4749C147.587 50.9837 145.856 47.5314 143.191 44.6916C138.644 39.8437 133.11 37.2798 127.389 35.3623C122.797 33.8237 118.106 32.7165 113.46 31.4153C112.947 31.271 112.437 31.107 111.925 30.9519Z" fill="url(#paint0_linear)"/>
<path d="M98.9657 95.1743C96.7853 94.8686 94.5779 94.7246 92.4284 94.2248C85.2746 92.5595 78.8601 89.1322 74.1116 82.163C67.4812 72.427 68.6697 60.2956 76.9845 52.6491C81.9806 48.0547 87.7644 45.7343 93.8778 44.4831C104.285 42.3529 114.538 43.2094 124.505 47.3834C127.113 48.4757 129.649 50.2254 131.842 52.2639C135.384 55.5595 135.516 60.8151 132.56 64.8786C129.967 68.4455 126.568 70.1829 122.824 71.0986C118.362 72.1909 113.954 71.9174 109.752 69.7328C108.191 68.9203 106.705 67.7219 105.406 66.3837C103.511 64.4288 103.477 62.3473 105.169 60.0617C106.84 57.8037 109.04 56.6167 111.505 55.8687C111.456 56.1457 111.47 56.2998 111.414 56.3609C108.392 59.6442 108.781 63.0418 112.498 65.0365C116.519 67.194 120.458 66.8534 124.092 63.8287C127.225 61.2215 127.461 57.0706 124.86 53.7116C123.008 51.3193 120.659 49.9463 118.108 49.2392C107.928 46.4132 97.7813 46.3784 87.8154 50.5179C85.5877 51.4437 83.406 52.8057 81.4705 54.4286C73.6193 61.0142 72.5726 72.9645 78.926 81.5989C83.4595 87.7604 89.3851 90.9889 95.7176 93.3901C96.8277 93.8123 97.945 94.2026 99.0591 94.6081C99.0281 94.7967 98.9971 94.9854 98.9657 95.1743Z" fill="url(#paint1_linear)"/>
<path d="M139.845 86.7785C137.125 87.5116 134.432 88.4785 131.68 88.9334C118.817 91.0683 106.106 90.3577 93.857 84.7727C90.7207 83.3433 87.685 81.1314 85.0746 78.5764C78.7883 72.427 79.1749 62.4059 85.7657 56.679C87.5099 55.1628 89.6068 54.2383 91.541 53.0415C91.6901 53.2852 91.8392 53.5299 91.9896 53.7746C91.2874 54.6855 90.6102 55.6262 89.8804 56.5036C84.9254 62.4688 84.9242 69.6717 89.9684 75.484C91.1367 76.8286 92.4484 78.044 93.8171 79.0829C99.1162 83.1094 105.064 84.8141 111.17 85.8783C120.672 87.5334 130.191 87.1257 139.712 86.072C139.758 86.3085 139.8 86.5446 139.845 86.7785Z" fill="url(#paint2_linear)"/>
<path d="M171.839 74.8778C172.252 73.2946 172.766 71.3135 173.457 68.654C173.979 69.867 174.454 70.5108 174.519 71.1941C174.979 76.0262 174.278 80.6813 172.339 85.1674C171.777 86.4699 171.08 87.3125 169.614 87.2998C168.234 87.29 167.391 87.9436 167.09 89.2835C166.16 93.3945 163.388 94.9875 159.383 95.1417C157.385 95.2189 155.406 95.7681 153.404 95.8925C152.641 95.9396 151.587 95.6067 151.146 95.0572C150.858 94.6944 151.236 93.5189 151.636 92.9197C158.105 83.2733 160.875 72.6951 159.781 61.1227C159.003 52.8608 156.169 45.3535 151.455 38.5397C150.055 36.519 151.365 33.1312 153.792 32.8441C154.441 32.7659 155.413 33.468 155.878 34.082C159.366 38.6938 161.83 43.8449 163.761 49.2859C164.171 50.4403 164.984 51.7118 165.982 52.3527C170.091 54.991 172.227 58.4373 171.891 63.4776C171.63 67.3727 171.839 71.2986 171.839 74.8778Z" fill="url(#paint3_linear)"/>
<path d="M51.3695 69.3102C51.8853 71.2939 52.4014 73.2794 52.9159 75.2653C53.0067 75.2457 53.0973 75.2254 53.1869 75.2105C53.1869 74.4999 53.209 73.7938 53.1831 73.0857C53.0688 69.8869 53.065 66.678 52.7876 63.4928C52.3476 58.4623 54.5489 55.0024 58.6601 52.3626C59.6596 51.7216 60.3309 50.4252 60.915 49.3069C63.5229 44.3125 66.014 39.2557 68.6222 34.2597C69.2263 33.1012 70.2357 31.9481 71.6218 33.1873C74.2297 35.5197 74.8949 36.0854 73.6281 37.9991C61.6226 56.1482 61.4719 74.4597 73.0066 92.9074C73.4094 93.5534 73.7165 94.7761 73.3843 95.2288C72.9978 95.7504 71.8269 95.9694 71.0487 95.8798C68.0181 95.5222 65.0122 94.9654 61.9893 94.5327C60.4702 94.3191 59.3763 93.6876 58.8577 92.1468C58.5271 91.1627 57.9145 90.2752 57.5998 89.2886C57.186 87.9987 56.4499 87.2903 55.0603 87.3052C53.5972 87.3201 52.8874 86.4946 52.3229 85.1823C50.4257 80.7684 49.6874 76.1946 50.1199 71.4328C50.1895 70.67 50.622 69.9379 50.8867 69.1909C51.0479 69.2308 51.2078 69.2716 51.3695 69.3102Z" fill="url(#paint4_linear)"/>
<path d="M110.482 0C129.187 0.251003 143.897 5.83701 156.417 17.0394C157.168 17.7105 158.205 19.1744 157.954 19.6368C157.243 20.9342 156.027 22.0437 154.786 22.9075C154.443 23.1461 153.183 22.4216 152.576 21.8772C143.395 13.6216 132.754 8.45815 120.492 6.87616C102.301 4.5285 86.2929 9.50457 72.4824 21.5553C70.369 23.3996 67.2181 22.5172 66.6672 19.7536C66.5352 19.0975 67.1282 18.0634 67.6978 17.5364C76.9523 8.97883 87.7809 3.46119 100.187 1.20912C104.204 0.47985 108.311 0.244673 110.482 0Z" fill="url(#paint5_linear)"/>
<path d="M111.571 11.8396C126.027 12.102 138.034 16.5618 148.285 25.6277C149.473 26.6792 150.53 27.605 148.938 29.2639C146.448 31.8575 146.139 31.9968 144.11 30.2531C125.298 14.0667 99.3476 14.0458 80.6043 30.154C79.9132 30.7478 78.4726 31.4612 78.0262 31.1618C76.7892 30.3281 75.8036 29.049 74.9395 27.7952C74.7705 27.5493 75.4752 26.4855 75.9812 26.023C84.3707 18.3666 94.2147 13.8043 105.481 12.3552C107.766 12.0609 110.077 11.9627 111.571 11.8396Z" fill="url(#paint6_linear)"/>
<path d="M30.1422 136.365H8.94643C6.46136 136.365 4.34831 135.541 2.60918 133.895C0.868776 132.25 0 130.184 0 127.703V117.66C0 115.182 0.868776 113.116 2.60918 111.471C4.34831 109.823 6.46136 109 8.94643 109H30.1422V115.388H8.94643C7.24212 115.388 6.39076 116.148 6.39076 117.67V127.696C6.39076 129.217 7.24212 129.978 8.94643 129.978H30.1422V136.365Z" fill="url(#paint7_linear)"/>
<path d="M71.789 127.9C71.789 130.207 71.0605 132.195 69.605 133.866C68.1492 135.531 66.285 136.366 64.0137 136.366H45.9071C43.5987 136.366 41.7266 135.531 40.2886 133.866C38.8502 132.196 38.1318 130.207 38.1318 127.9V109.001H44.5226V127.9C44.5226 129.285 44.9848 129.978 45.91 129.978H64.0637C64.954 129.978 65.3989 129.285 65.3989 127.9V109.001H71.7896V127.9H71.789Z" fill="url(#paint8_linear)"/>
<path d="M113.381 136.366H106.99V127.686H90.1618V121.299H106.99V117.466C106.99 116.079 106.529 115.388 105.606 115.388H87.4991C86.6113 115.388 86.1677 116.08 86.1677 117.461V136.366H79.777V117.449C79.777 115.145 80.4954 113.162 81.9337 111.496C83.3721 109.834 85.2265 109.001 87.4991 109.001H105.606C107.913 109.001 109.786 109.834 111.225 111.496C112.663 113.162 113.381 115.145 113.381 117.449V136.366Z" fill="url(#paint9_linear)"/>
<path d="M154.07 127.927C154.07 130.226 153.376 132.19 151.991 133.818C150.502 135.515 148.621 136.365 146.348 136.365H122.7V129.978H146.348C147.235 129.978 147.678 129.294 147.678 127.927C147.678 126.562 147.235 125.876 146.348 125.876H129.146C126.871 125.876 124.992 125.026 123.5 123.321C122.08 121.726 121.368 119.772 121.368 117.465C121.368 115.159 122.096 113.171 123.555 111.5C125.009 109.835 126.872 109 129.146 109H152.792V115.388H129.094C128.204 115.388 127.759 116.079 127.759 117.465C127.759 118.813 128.204 119.489 129.094 119.489H146.331C148.608 119.489 150.495 120.339 151.989 122.034C153.376 123.665 154.07 125.628 154.07 127.927Z" fill="url(#paint10_linear)"/>
<path d="M195.661 136.366H189.271V127.686H172.442V121.299H189.271V117.466C189.271 116.079 188.808 115.388 187.886 115.388H169.777C168.89 115.388 168.447 116.08 168.447 117.461V136.366H162.055V117.449C162.055 115.145 162.776 113.162 164.213 111.496C165.65 109.834 167.505 109.001 169.777 109.001H187.886C190.194 109.001 192.065 109.834 193.502 111.496C194.942 113.162 195.66 115.145 195.66 117.449V136.366H195.661Z" fill="url(#paint11_linear)"/>
<path d="M235.817 136.366H227.083L213.394 121.033H229.853C231.023 121.033 231.608 120.091 231.608 118.212C231.608 116.331 231.023 115.388 229.853 115.388H210.041V136.366H203.649V109.001H230.223C232.675 109.001 234.609 109.96 236.029 111.874C237.344 113.614 238 115.727 238 118.212C238 120.698 237.344 122.807 236.029 124.545C234.609 126.464 232.675 127.423 230.223 127.423H227.775L235.817 136.366Z" fill="url(#paint12_linear)"/>
<defs>
<linearGradient id="paint0_linear" x1="66.4521" y1="17.9306" x2="224.769" y2="134.715" gradientUnits="userSpaceOnUse">
<stop stop-color="#B283F5"/>
<stop offset="0.3531" stop-color="#865BFF"/>
<stop offset="0.7036" stop-color="#558DFE"/>
<stop offset="1" stop-color="#505CE4"/>
</linearGradient>
<linearGradient id="paint1_linear" x1="55.3419" y1="32.9906" x2="213.66" y2="149.776" gradientUnits="userSpaceOnUse">
<stop stop-color="#B283F5"/>
<stop offset="0.3531" stop-color="#865BFF"/>
<stop offset="0.7036" stop-color="#558DFE"/>
<stop offset="1" stop-color="#505CE4"/>
</linearGradient>
<linearGradient id="paint2_linear" x1="51.7645" y1="37.8418" x2="210.08" y2="154.625" gradientUnits="userSpaceOnUse">
<stop stop-color="#B283F5"/>
<stop offset="0.3531" stop-color="#865BFF"/>
<stop offset="0.7036" stop-color="#558DFE"/>
<stop offset="1" stop-color="#505CE4"/>
</linearGradient>
<linearGradient id="paint3_linear" x1="74.8623" y1="6.52771" x2="233.181" y2="123.313" gradientUnits="userSpaceOnUse">
<stop stop-color="#B283F5"/>
<stop offset="0.3531" stop-color="#865BFF"/>
<stop offset="0.7036" stop-color="#558DFE"/>
<stop offset="1" stop-color="#505CE4"/>
</linearGradient>
<linearGradient id="paint4_linear" x1="44.458" y1="47.744" x2="202.782" y2="164.534" gradientUnits="userSpaceOnUse">
<stop stop-color="#B283F5"/>
<stop offset="0.3531" stop-color="#865BFF"/>
<stop offset="0.7036" stop-color="#558DFE"/>
<stop offset="1" stop-color="#505CE4"/>
</linearGradient>
<linearGradient id="paint5_linear" x1="81.9308" y1="-3.05534" x2="240.251" y2="113.732" gradientUnits="userSpaceOnUse">
<stop stop-color="#B283F5"/>
<stop offset="0.3531" stop-color="#865BFF"/>
<stop offset="0.7036" stop-color="#558DFE"/>
<stop offset="1" stop-color="#505CE4"/>
</linearGradient>
<linearGradient id="paint6_linear" x1="77.9712" y1="2.31385" x2="236.289" y2="119.099" gradientUnits="userSpaceOnUse">
<stop stop-color="#B283F5"/>
<stop offset="0.3531" stop-color="#865BFF"/>
<stop offset="0.7036" stop-color="#558DFE"/>
<stop offset="1" stop-color="#505CE4"/>
</linearGradient>
<linearGradient id="paint7_linear" x1="3.34634" y1="111.887" x2="161.666" y2="228.673" gradientUnits="userSpaceOnUse">
<stop stop-color="#B283F5"/>
<stop offset="0.3531" stop-color="#865BFF"/>
<stop offset="0.7036" stop-color="#558DFE"/>
<stop offset="1" stop-color="#505CE4"/>
</linearGradient>
<linearGradient id="paint8_linear" x1="17.2911" y1="92.9852" x2="175.608" y2="209.77" gradientUnits="userSpaceOnUse">
<stop stop-color="#B283F5"/>
<stop offset="0.3531" stop-color="#865BFF"/>
<stop offset="0.7036" stop-color="#558DFE"/>
<stop offset="1" stop-color="#505CE4"/>
</linearGradient>
<linearGradient id="paint9_linear" x1="30.1099" y1="75.6025" x2="188.432" y2="192.391" gradientUnits="userSpaceOnUse">
<stop stop-color="#B283F5"/>
<stop offset="0.3531" stop-color="#865BFF"/>
<stop offset="0.7036" stop-color="#558DFE"/>
<stop offset="1" stop-color="#505CE4"/>
</linearGradient>
<linearGradient id="paint10_linear" x1="45.5333" y1="54.6983" x2="203.852" y2="171.484" gradientUnits="userSpaceOnUse">
<stop stop-color="#B283F5"/>
<stop offset="0.3531" stop-color="#865BFF"/>
<stop offset="0.7036" stop-color="#558DFE"/>
<stop offset="1" stop-color="#505CE4"/>
</linearGradient>
<linearGradient id="paint11_linear" x1="59.0926" y1="36.3093" x2="217.416" y2="153.098" gradientUnits="userSpaceOnUse">
<stop stop-color="#B283F5"/>
<stop offset="0.3531" stop-color="#865BFF"/>
<stop offset="0.7036" stop-color="#558DFE"/>
<stop offset="1" stop-color="#505CE4"/>
</linearGradient>
<linearGradient id="paint12_linear" x1="73.8696" y1="16.2905" x2="232.186" y2="133.074" gradientUnits="userSpaceOnUse">
<stop stop-color="#B283F5"/>
<stop offset="0.3531" stop-color="#865BFF"/>
<stop offset="0.7036" stop-color="#558DFE"/>
<stop offset="1" stop-color="#505CE4"/>
</linearGradient>
</defs>
</svg>
