<svg width="155" height="20" viewBox="0 0 155 20" fill="none" xmlns="http://www.w3.org/2000/svg">
<path d="M48.4428 19.9999H37.5822C36.3089 19.9999 35.2263 19.5778 34.335 18.7355C33.4435 17.8934 32.9982 16.8365 32.9982 15.567V10.4276C32.9982 9.15901 33.4435 8.10216 34.3352 7.26027C35.2263 6.417 36.3092 5.99582 37.5824 5.99582H48.4428V9.26476H37.5822C36.7091 9.26476 36.2726 9.65398 36.2726 10.4326V15.5636C36.2726 16.3422 36.7089 16.731 37.5822 16.731H48.4426V19.9999H48.4428Z" fill="white"/>
<path d="M69.7821 15.6669C69.7821 16.8474 69.4088 17.8649 68.6628 18.7197C67.917 19.5719 66.9617 19.9989 65.7978 19.9989H56.5204C55.3376 19.9989 54.3784 19.5719 53.6416 18.7197C52.9046 17.8647 52.5366 16.8472 52.5366 15.6669V5.995H55.811V15.6669C55.811 16.3754 56.0479 16.7302 56.5218 16.7302H65.8236C66.2797 16.7302 66.5077 16.3754 66.5077 15.6669V5.995H69.7823V15.6669H69.7821Z" fill="white"/>
<path d="M91.0934 19.9991H87.8191V15.5574H79.196V12.2885H87.8191V10.3272C87.8191 9.61774 87.5828 9.26392 87.1094 9.26392H77.832C77.377 9.26392 77.1498 9.61774 77.1498 10.3249V19.9991H73.8752V10.3185C73.8752 9.13932 74.2434 8.12408 74.9801 7.27185C75.7172 6.42099 76.6674 5.99475 77.8318 5.99475H87.1092C88.2913 5.99475 89.2512 6.42099 89.9882 7.27185C90.7253 8.12408 91.0932 9.13932 91.0932 10.3185V19.9991H91.0934Z" fill="white"/>
<path d="M111.942 15.6807C111.942 16.8571 111.587 17.8619 110.877 18.6953C110.114 19.5637 109.15 19.9989 107.985 19.9989H95.8679V16.7299H107.985C108.44 16.7299 108.667 16.3802 108.667 15.6807C108.667 14.9825 108.44 14.6314 107.985 14.6314H99.1713C98.0058 14.6314 97.0424 14.1962 96.2782 13.3237C95.5509 12.5074 95.1859 11.5075 95.1859 10.327C95.1859 9.14692 95.5584 8.12938 96.3063 7.27461C97.0514 6.42238 98.0058 5.995 99.1713 5.995H111.287V9.26394H99.1444C98.6887 9.26394 98.4603 9.61775 98.4603 10.3272C98.4603 11.0169 98.6885 11.3627 99.1444 11.3627H107.976C109.143 11.3627 110.11 11.7979 110.876 12.6653C111.587 13.4994 111.942 14.5043 111.942 15.6807Z" fill="white"/>
<path d="M133.253 19.9991H129.978V15.5574H121.356V12.2885H129.978V10.3272C129.978 9.61774 129.741 9.26392 129.269 9.26392H119.99C119.535 9.26392 119.308 9.61774 119.308 10.3249V19.9991H116.033V10.3185C116.033 9.13932 116.402 8.12408 117.139 7.27185C117.875 6.42099 118.826 5.99475 119.99 5.99475H129.269C130.451 5.99475 131.41 6.42099 132.147 7.27185C132.884 8.12408 133.253 9.13932 133.253 10.3185V19.9991Z" fill="white"/>
<path d="M153.828 19.9991H149.353L142.339 12.1524H150.772C151.372 12.1524 151.672 11.6705 151.672 10.7089C151.672 9.74604 151.372 9.26394 150.772 9.26394H140.62V19.9991H137.345V5.995H150.962C152.218 5.995 153.209 6.48583 153.937 7.46543C154.61 8.35537 154.947 9.43705 154.947 10.7086C154.947 11.9807 154.61 13.0605 153.937 13.9497C153.209 14.9316 152.218 15.4225 150.962 15.4225H149.707L153.828 19.9991Z" fill="white"/>
<path d="M12.8042 6.39178C14.7 6.46981 16.5588 6.76037 18.3189 7.65731C19.1014 8.05605 19.8134 8.58764 20.4071 9.32853C21.6105 10.8303 21.6182 12.6907 20.4283 14.2137C19.7178 15.1234 18.83 15.6981 17.8657 16.0933C15.8325 16.927 13.7671 17.2853 11.6569 16.5291C10.5573 16.1353 9.52149 15.5892 8.8028 14.4397C8.05326 13.2408 8.28489 11.8873 9.36187 11.1253C10.0106 10.6664 10.7216 10.4095 11.4639 10.3232C12.3827 10.2168 13.3076 10.2065 14.1902 10.5966C14.5099 10.7379 14.8276 10.9448 15.0887 11.2053C15.4835 11.5993 15.4692 12.2235 15.1135 12.67C14.7347 13.145 13.7728 13.2011 13.3677 12.7635C13.2898 12.6792 13.238 12.5605 13.1215 12.3731C13.3604 12.4388 13.5076 12.4881 13.6577 12.5191C13.9902 12.5877 14.256 12.4211 14.3404 12.1011C14.434 11.748 14.3214 11.4718 14.0062 11.2783C13.1593 10.7591 11.3611 11.1372 10.7152 11.97C10.2705 12.5436 10.2479 13.2223 10.7154 13.7703C10.9838 14.085 11.3054 14.3664 11.6441 14.5559C13.7092 15.712 15.6841 15.6099 17.5183 13.86C17.5362 13.8433 17.5543 13.8271 17.5717 13.8099C18.6471 12.7405 18.6399 11.4757 17.5265 10.4682C16.3135 9.37009 14.904 8.83201 13.4359 8.5086C11.5033 8.08314 9.57687 8.10485 7.67222 8.75677C7.56815 8.79211 7.45991 8.81095 7.32732 8.75575C7.43017 8.70138 7.53089 8.63978 7.63654 8.59386C9.39206 7.82959 11.207 7.71325 13.0455 7.89657C14.2585 8.01718 15.4531 8.28993 16.5788 8.84639C17.1824 9.14428 17.7781 9.53495 18.2897 10.0188C19.4288 11.0961 19.3578 12.4864 18.4953 13.7842C18.4058 13.9192 18.2978 14.0367 18.1996 14.1607C18.2264 14.1931 18.2449 14.2269 18.253 14.2236C19.1825 13.8591 20.1228 12.4861 20.152 11.4562C20.1778 10.5286 19.8201 9.81578 19.2689 9.22936C18.3287 8.22814 17.1843 7.69869 16.0015 7.30273C15.052 6.98498 14.082 6.75629 13.1215 6.48762C13.0155 6.45775 12.91 6.42398 12.8042 6.39178Z" fill="white"/>
<path d="M10.1245 19.6545C9.6737 19.5914 9.21721 19.5617 8.7728 19.4584C7.2936 19.1147 5.96734 18.4069 4.98542 16.9675C3.61447 14.9571 3.86023 12.4517 5.57942 10.8725C6.61245 9.92372 7.80844 9.44454 9.07245 9.18617C11.2244 8.74624 13.3443 8.92316 15.4051 9.78512C15.9445 10.0107 16.4687 10.3721 16.9221 10.793C17.6547 11.4736 17.682 12.559 17.0707 13.3981C16.5345 14.1346 15.8318 14.4936 15.0576 14.6825C14.1349 14.9082 13.2235 14.8518 12.3547 14.4006C12.032 14.2328 11.7248 13.9853 11.4562 13.7089C11.0642 13.3052 11.0573 12.8754 11.4071 12.4034C11.7526 11.9371 12.2075 11.692 12.7172 11.5375C12.7072 11.5948 12.71 11.6265 12.6984 11.6391C12.0736 12.3172 12.1541 13.0188 12.9225 13.4307C13.754 13.8762 14.5683 13.8059 15.3199 13.1813C15.9676 12.6428 16.0164 11.7857 15.4787 11.0919C15.0958 10.5979 14.61 10.3143 14.0826 10.1683C11.9778 9.58463 9.87969 9.57749 7.81903 10.4323C7.35846 10.6235 6.90736 10.9048 6.50708 11.24C4.88368 12.6 4.66728 15.0679 5.981 16.851C6.91832 18.1232 8.14358 18.79 9.45294 19.286C9.68243 19.3731 9.91351 19.4538 10.1438 19.5375C10.1374 19.5765 10.131 19.6155 10.1245 19.6545Z" fill="white"/>
<path d="M18.577 17.9208C18.0146 18.0721 17.4579 18.2717 16.8888 18.3658C14.2291 18.8066 11.6009 18.6599 9.06816 17.5065C8.41971 17.2113 7.79198 16.7546 7.25224 16.2269C5.95246 14.957 6.03237 12.8874 7.39514 11.7048C7.75575 11.3917 8.18938 11.2008 8.58928 10.9536C8.62013 11.0039 8.65098 11.0545 8.6821 11.105C8.53697 11.2932 8.39686 11.4875 8.24596 11.6686C7.2214 12.9005 7.22112 14.3879 8.26418 15.5883C8.50585 15.8659 8.77697 16.1169 9.05999 16.3316C10.1556 17.1632 11.3855 17.5152 12.6482 17.7348C14.6127 18.0766 16.581 17.9925 18.5498 17.7749C18.5591 17.8236 18.5678 17.8723 18.577 17.9208Z" fill="white"/>
<path d="M25.1924 15.4629C25.2778 15.1361 25.3842 14.7271 25.5272 14.1777C25.635 14.4282 25.7332 14.5611 25.7466 14.7024C25.8417 15.7002 25.6968 16.6615 25.2958 17.588C25.1796 17.857 25.0355 18.031 24.7324 18.0283C24.4471 18.0264 24.2728 18.1613 24.2106 18.438C24.0184 19.2871 23.4452 19.6159 22.6171 19.6479C22.2038 19.6638 21.7945 19.7771 21.3807 19.8028C21.223 19.8125 21.0049 19.7437 20.9139 19.6303C20.8543 19.5554 20.9324 19.3127 21.0153 19.1889C22.3529 17.1968 22.9255 15.0122 22.6994 12.6226C22.5385 10.9164 21.9524 9.36604 20.9778 7.95894C20.6884 7.54156 20.9593 6.84204 21.4609 6.78276C21.5951 6.76662 21.7961 6.91153 21.8922 7.03835C22.6135 7.99067 23.1229 9.05451 23.5224 10.1781C23.6072 10.4165 23.7753 10.6791 23.9814 10.8115C24.8312 11.3563 25.2728 12.068 25.2033 13.1089C25.1494 13.9132 25.1924 14.724 25.1924 15.4629Z" fill="white"/>
<path d="M0.283209 14.3133C0.389875 14.723 0.496541 15.133 0.602929 15.5431C0.621697 15.5391 0.640466 15.5349 0.658956 15.5319C0.658956 15.3851 0.663602 15.2393 0.658213 15.0931C0.634613 14.4323 0.633776 13.7697 0.576448 13.1121C0.485484 12.0732 0.940673 11.3587 1.79066 10.8136C1.9973 10.6812 2.13611 10.4136 2.2569 10.1825C2.79618 9.15109 3.3112 8.10683 3.85048 7.07519C3.97545 6.83593 4.18413 6.59778 4.47068 6.85374C5.00996 7.33542 5.14747 7.45222 4.88545 7.84744C2.40315 11.5954 2.37202 15.377 4.75695 19.1866C4.8402 19.3201 4.90376 19.5725 4.83509 19.666C4.75519 19.7738 4.51305 19.8189 4.35212 19.8005C3.72551 19.7265 3.104 19.6117 2.47887 19.5223C2.16482 19.4781 1.93857 19.3478 1.83135 19.0295C1.76306 18.8263 1.63632 18.643 1.57128 18.4394C1.48571 18.1729 1.33352 18.0266 1.04622 18.0299C0.743694 18.0328 0.596981 17.8624 0.480281 17.5913C0.0879955 16.6798 -0.0646624 15.7353 0.0248143 14.752C0.039216 14.5944 0.128693 14.4433 0.183419 14.2889C0.21659 14.297 0.24976 14.3053 0.283209 14.3133Z" fill="white"/>
<path d="M12.5058 0C16.3733 0.0518604 19.4151 1.20541 22.0039 3.51881C22.159 3.65741 22.3735 3.95967 22.3214 4.05522C22.1744 4.32315 21.9231 4.5523 21.6665 4.73071C21.5956 4.77997 21.335 4.63033 21.2095 4.51798C19.3111 2.81317 17.111 1.74674 14.5756 1.42008C10.8143 0.93525 7.50426 1.9629 4.64863 4.45146C4.21165 4.83229 3.56013 4.65009 3.44622 4.07934C3.419 3.9438 3.54155 3.73033 3.65927 3.62141C5.57285 1.85417 7.81181 0.714727 10.377 0.249746C11.2077 0.0990821 12.057 0.0505616 12.5058 0Z" fill="white"/>
<path d="M12.7309 2.44495C15.7199 2.49913 18.2028 3.42018 20.3223 5.29235C20.568 5.50953 20.7864 5.70074 20.4574 6.04335C19.9423 6.57893 19.8786 6.60769 19.4591 6.24764C15.5693 2.90492 10.2035 2.90056 6.32795 6.22714C6.18505 6.34978 5.88717 6.49711 5.7949 6.43523C5.5392 6.26304 5.33535 5.99891 5.15667 5.73998C5.12174 5.68924 5.26743 5.46946 5.37205 5.37408C7.10667 3.79295 9.14215 2.85083 11.4715 2.55154C11.9442 2.49068 12.4219 2.47037 12.7309 2.44495Z" fill="white"/>
</svg>
