<svg width="25" height="20" viewBox="0 0 25 20" fill="none" xmlns="http://www.w3.org/2000/svg">
<path fill-rule="evenodd" clip-rule="evenodd" d="M0 18.8889C0 18.5942 0.117407 18.3116 0.326391 18.1032C0.535376 17.8948 0.81882 17.7778 1.11437 17.7778H23.4018C23.6973 17.7778 23.9808 17.8948 24.1897 18.1032C24.3987 18.3116 24.5161 18.5942 24.5161 18.8889C24.5161 19.1836 24.3987 19.4662 24.1897 19.6746C23.9808 19.8829 23.6973 20 23.4018 20H1.11437C0.81882 20 0.535376 19.8829 0.326391 19.6746C0.117407 19.4662 0 19.1836 0 18.8889ZM0 10C0 9.70532 0.117407 9.4227 0.326391 9.21433C0.535376 9.00595 0.81882 8.88889 1.11437 8.88889H23.4018C23.6973 8.88889 23.9808 9.00595 24.1897 9.21433C24.3987 9.4227 24.5161 9.70532 24.5161 10C24.5161 10.2947 24.3987 10.5773 24.1897 10.7857C23.9808 10.994 23.6973 11.1111 23.4018 11.1111H1.11437C0.81882 11.1111 0.535376 10.994 0.326391 10.7857C0.117407 10.5773 0 10.2947 0 10ZM0 1.11111C0 0.816426 0.117407 0.533811 0.326391 0.325437C0.535376 0.117063 0.81882 0 1.11437 0H23.4018C23.6973 0 23.9808 0.117063 24.1897 0.325437C24.3987 0.533811 24.5161 0.816426 24.5161 1.11111C24.5161 1.4058 24.3987 1.68841 24.1897 1.89679C23.9808 2.10516 23.6973 2.22222 23.4018 2.22222H1.11437C0.81882 2.22222 0.535376 2.10516 0.326391 1.89679C0.117407 1.68841 0 1.4058 0 1.11111Z" fill="white"/>
</svg>
