<svg width="18" height="15" viewBox="0 0 18 15" fill="none" xmlns="http://www.w3.org/2000/svg">
<path d="M5.65425 14.875C12.447 14.875 16.1629 9.24667 16.1629 4.3743C16.1629 4.2168 16.1629 4.05705 16.1561 3.89955C16.8796 3.37584 17.5039 2.72747 18 1.9848C17.3242 2.28275 16.6081 2.47913 15.8749 2.56755C16.6472 2.10589 17.2257 1.37951 17.5028 0.523422C16.7771 0.953312 15.9829 1.25509 15.1549 1.41555C14.5982 0.822699 13.8616 0.429955 13.0591 0.29815C12.2566 0.166344 11.4331 0.302834 10.716 0.686477C9.99895 1.07012 9.42841 1.6795 9.09276 2.42024C8.7571 3.16098 8.67508 3.99172 8.85938 4.7838C7.39096 4.71017 5.95442 4.3287 4.64292 3.66413C3.33143 2.99957 2.17427 2.06675 1.2465 0.926172C0.775508 1.73964 0.63177 2.70187 0.844477 3.61747C1.05718 4.53307 1.61039 5.33339 2.39175 5.85592C1.80623 5.83603 1.23359 5.6788 0.72 5.39692V5.44755C0.72101 6.29971 1.01622 7.1254 1.55573 7.78503C2.09525 8.44466 2.84597 8.89778 3.681 9.0678C3.36405 9.15511 3.03663 9.19864 2.70788 9.19717C2.47611 9.19788 2.2448 9.1764 2.01712 9.13305C2.25313 9.86661 2.71268 10.508 3.3314 10.9673C3.95012 11.4267 4.69703 11.681 5.4675 11.6947C4.15862 12.7227 2.54183 13.2803 0.8775 13.2775C0.584236 13.2788 0.291176 13.2619 0 13.2269C1.6892 14.3038 3.65096 14.8757 5.65425 14.875Z" fill="white"/>
</svg>
