<svg width="24" height="16" viewBox="0 0 24 16" fill="none" xmlns="http://www.w3.org/2000/svg">
<path d="M23.2727 8C23.2727 8 18.9091 0 11.6364 0C4.36364 0 0 8 0 8C0 8 4.36364 16 11.6364 16C18.9091 16 23.2727 8 23.2727 8ZM1.70618 8C2.40948 6.93109 3.21839 5.93554 4.12073 5.02836C5.99273 3.15345 8.55273 1.45455 11.6364 1.45455C14.72 1.45455 17.2785 3.15345 19.1535 5.02836C20.0558 5.93554 20.8647 6.93109 21.568 8C21.4836 8.12655 21.3905 8.26618 21.2844 8.41891C20.7971 9.11709 20.0771 10.048 19.1535 10.9716C17.2785 12.8465 14.7185 14.5455 11.6364 14.5455C8.55273 14.5455 5.99418 12.8465 4.11927 10.9716C3.21694 10.0645 2.40803 9.06891 1.70473 8H1.70618Z" fill="#B283F5"/>
<path d="M11.6363 4.36364C10.6719 4.36364 9.74697 4.74675 9.06502 5.4287C8.38307 6.11065 7.99996 7.03558 7.99996 8C7.99996 8.96442 8.38307 9.88935 9.06502 10.5713C9.74697 11.2532 10.6719 11.6364 11.6363 11.6364C12.6007 11.6364 13.5257 11.2532 14.2076 10.5713C14.8896 9.88935 15.2727 8.96442 15.2727 8C15.2727 7.03558 14.8896 6.11065 14.2076 5.4287C13.5257 4.74675 12.6007 4.36364 11.6363 4.36364ZM6.54541 8C6.54541 6.64981 7.08177 5.35492 8.0365 4.40018C8.99123 3.44545 10.2861 2.90909 11.6363 2.90909C12.9865 2.90909 14.2814 3.44545 15.2361 4.40018C16.1909 5.35492 16.7272 6.64981 16.7272 8C16.7272 9.35019 16.1909 10.6451 15.2361 11.5998C14.2814 12.5545 12.9865 13.0909 11.6363 13.0909C10.2861 13.0909 8.99123 12.5545 8.0365 11.5998C7.08177 10.6451 6.54541 9.35019 6.54541 8Z" fill="#B283F5"/>
</svg>
