<svg width="26" height="18" viewBox="0 0 26 18" fill="none" xmlns="http://www.w3.org/2000/svg">
<path d="M12.8942 0H13.0367C14.3532 0.0048047 21.0238 0.0528519 22.8223 0.536525C23.366 0.684139 23.8615 0.971866 24.2592 1.37095C24.6569 1.77004 24.9428 2.26651 25.0885 2.81075C25.2503 3.41934 25.364 4.22493 25.4409 5.05614L25.4569 5.22271L25.4921 5.63911L25.5049 5.80568C25.609 7.26951 25.6219 8.64045 25.6235 8.93994V9.06006C25.6219 9.37076 25.6074 10.8346 25.4921 12.3593L25.4793 12.5274L25.4649 12.694C25.3848 13.6101 25.2663 14.5198 25.0885 15.1893C24.9433 15.7337 24.6574 16.2304 24.2597 16.6296C23.8619 17.0287 23.3663 17.3163 22.8223 17.4635C20.9645 17.9632 13.9032 17.9984 12.9246 18H12.6972C12.2023 18 10.1555 17.9904 8.00943 17.9167L7.73716 17.9071L7.59783 17.9007L7.32396 17.8895L7.05009 17.8783C5.27236 17.7998 3.5795 17.6733 2.79954 17.4619C2.25579 17.3148 1.76023 17.0275 1.36249 16.6286C0.964757 16.2298 0.678819 15.7334 0.533321 15.1893C0.355548 14.5214 0.237032 13.6101 0.156953 12.694L0.144141 12.5258L0.131328 12.3593C0.0522873 11.2741 0.00848809 10.1866 0 9.0985L0 8.9031C0.00320313 8.55877 0.0160157 7.36881 0.1025 6.05552L0.113711 5.89056L0.118516 5.80728L0.131328 5.64072L0.166563 5.22431L0.182579 5.05775C0.259454 4.22653 0.373165 3.41934 0.534923 2.81235C0.680175 2.26789 0.966004 1.77119 1.36375 1.37203C1.7615 0.972877 2.2572 0.685298 2.80114 0.538126C3.5811 0.329923 5.27396 0.201797 7.05169 0.121719L7.32396 0.110508L7.59943 0.100899L7.73716 0.0960941L8.01103 0.0848831C9.53525 0.0353005 11.0601 0.00753712 12.5851 0.00160164H12.8942V0ZM10.25 5.14103V12.8574L16.9077 9.0008L10.25 5.14103Z" fill="white"/>
</svg>
